<svg xmlns="http://www.w3.org/2000/svg" xmlns:xlink="http://www.w3.org/1999/xlink" width="500" zoomAndPan="magnify" viewBox="0 0 375 374.999991" height="500" preserveAspectRatio="xMidYMid meet" version="1.0"><defs><g/><clipPath id="c01b6d8cd7"><path d="M 70.511719 62.613281 L 304.488281 62.613281 L 304.488281 64.28125 L 70.511719 64.28125 Z M 302.785156 64.28125 L 304.488281 64.28125 L 304.488281 294.886719 L 302.785156 294.886719 Z M 70.511719 64.28125 L 72.179688 64.28125 L 72.179688 294.886719 L 70.511719 294.886719 Z M 70.511719 294.886719 L 304.488281 294.886719 L 304.488281 296.589844 L 70.511719 296.589844 Z M 70.511719 294.886719 " clip-rule="nonzero"/></clipPath><clipPath id="ed0b37b445"><path d="M 75.71875 67.820312 L 299.28125 67.820312 L 299.28125 69.414062 L 75.71875 69.414062 Z M 297.652344 69.414062 L 299.28125 69.414062 L 299.28125 289.753906 L 297.652344 289.753906 Z M 75.71875 69.414062 L 77.3125 69.414062 L 77.3125 289.753906 L 75.71875 289.753906 Z M 75.71875 289.753906 L 299.28125 289.753906 L 299.28125 291.378906 L 75.71875 291.378906 Z M 75.71875 289.753906 " clip-rule="nonzero"/></clipPath><clipPath id="1f8f3b6f72"><path d="M 143 90.347656 L 232.441406 90.347656 L 232.441406 179.292969 L 143 179.292969 Z M 143 90.347656 " clip-rule="nonzero"/></clipPath></defs><g clip-path="url(#c01b6d8cd7)"><path fill="#e87500" d="M 70.511719 62.613281 L 304.429688 62.613281 L 304.429688 296.53125 L 70.511719 296.53125 Z M 70.511719 62.613281 " fill-opacity="1" fill-rule="nonzero"/></g><g clip-path="url(#ed0b37b445)"><path fill="#e87500" d="M 75.71875 67.820312 L 299.226562 67.820312 L 299.226562 291.328125 L 75.71875 291.328125 Z M 75.71875 67.820312 " fill-opacity="1" fill-rule="nonzero"/></g><path fill="#154734" d="M 197.113281 129.867188 C 196.675781 129.433594 196.675781 128.730469 197.113281 128.296875 L 221.625 103.835938 C 222.058594 103.402344 222.765625 103.402344 223.199219 103.835938 C 223.417969 104.050781 223.527344 104.335938 223.527344 104.621094 C 223.527344 104.90625 223.417969 105.191406 223.199219 105.40625 L 198.6875 129.867188 C 198.253906 130.300781 197.546875 130.300781 197.113281 129.867188 " fill-opacity="1" fill-rule="nonzero"/><path fill="#154734" d="M 192.65625 125.421875 C 192.21875 124.984375 192.21875 124.28125 192.65625 123.847656 L 217.167969 99.386719 C 217.601562 98.953125 218.308594 98.953125 218.742188 99.386719 C 218.960938 99.605469 219.070312 99.890625 219.070312 100.171875 C 219.070312 100.457031 218.960938 100.742188 218.742188 100.960938 L 194.230469 125.421875 C 193.796875 125.855469 193.089844 125.855469 192.65625 125.421875 " fill-opacity="1" fill-rule="nonzero"/><g clip-path="url(#1f8f3b6f72)"><path fill="#154734" d="M 221.207031 176.890625 C 226.167969 176.890625 230.199219 172.867188 230.199219 167.921875 C 230.199219 167.589844 230.054688 167.28125 229.804688 167.070312 L 199.648438 141.851562 C 199.507812 142.417969 199.21875 142.960938 198.773438 143.402344 L 197.375 144.800781 C 196.742188 145.429688 195.902344 145.777344 195.011719 145.777344 C 194.117188 145.777344 193.277344 145.429688 192.648438 144.800781 L 188.6875 140.851562 L 184.851562 144.675781 L 220.28125 176.605469 C 220.488281 176.789062 220.75 176.890625 221.027344 176.890625 Z M 226.757812 109.160156 C 228.953125 107.355469 230.210938 104.691406 230.210938 101.855469 C 230.210938 96.636719 225.957031 92.390625 220.730469 92.390625 C 217.882812 92.390625 215.214844 93.648438 213.410156 95.839844 L 187.429688 127.367188 L 195.1875 135.105469 Z M 181.167969 125.175781 C 181.089844 125.222656 181.011719 125.261719 180.929688 125.292969 C 180.871094 125.332031 180.8125 125.378906 180.761719 125.429688 L 179.359375 126.828125 C 178.925781 127.261719 178.925781 127.964844 179.359375 128.398438 L 189.457031 138.472656 L 189.46875 138.484375 L 194.222656 143.226562 C 194.65625 143.660156 195.363281 143.660156 195.796875 143.226562 L 197.199219 141.832031 C 197.632812 141.398438 197.632812 140.691406 197.199219 140.257812 L 194.328125 137.394531 C 194.328125 137.394531 194.328125 137.394531 194.324219 137.394531 L 182.335938 125.429688 C 182.019531 125.113281 181.5625 125.03125 181.167969 125.175781 Z M 169.96875 131.265625 L 177.457031 138.011719 L 181.648438 133.828125 L 177.785156 129.972656 C 176.484375 128.671875 176.484375 126.554688 177.785156 125.253906 L 178.8125 124.230469 L 177.257812 122.925781 Z M 178.925781 117.632812 C 179.710938 116.734375 179.574219 115.3125 178.621094 114.457031 L 176.710938 112.746094 C 176.257812 112.34375 176.214844 111.648438 176.617188 111.1875 L 179.832031 107.507812 C 180.027344 107.285156 180.308594 107.148438 180.605469 107.128906 C 180.902344 107.109375 181.195312 107.210938 181.417969 107.410156 L 182.691406 108.550781 C 183.195312 109.003906 183.835938 109.238281 184.449219 109.203125 C 184.789062 109.183594 185.277344 109.066406 185.65625 108.632812 L 189.667969 104.042969 C 190.375 103.234375 190.175781 101.878906 189.222656 101.027344 L 180.316406 93.046875 C 179.8125 92.59375 179.171875 92.355469 178.558594 92.394531 C 178.214844 92.414062 177.726562 92.53125 177.347656 92.964844 L 173.339844 97.554688 C 173.050781 97.882812 172.914062 98.296875 172.914062 98.734375 C 172.914062 99.375 173.214844 100.0625 173.78125 100.570312 L 175.054688 101.710938 C 175.507812 102.117188 175.550781 102.8125 175.148438 103.269531 L 171.933594 106.949219 C 171.738281 107.175781 171.460938 107.3125 171.164062 107.328125 C 170.863281 107.347656 170.570312 107.246094 170.347656 107.046875 L 169.078125 105.90625 C 168.597656 105.480469 167.996094 105.261719 167.382812 105.300781 C 166.828125 105.335938 166.328125 105.578125 165.972656 105.984375 L 162.972656 109.414062 C 162.964844 109.425781 162.960938 109.441406 162.949219 109.453125 C 162.9375 109.464844 162.921875 109.476562 162.90625 109.492188 L 154.671875 118.917969 C 154.660156 118.929688 154.65625 118.941406 154.644531 118.953125 C 154.640625 118.957031 154.628906 118.964844 154.625 118.972656 L 148.769531 125.671875 C 145.878906 128.980469 144.765625 134.710938 146.066406 139.601562 C 146.574219 141.503906 147.574219 143.792969 149.5625 145.621094 C 148.128906 142.113281 148.550781 138.113281 151.015625 135.292969 C 152.738281 133.324219 155.144531 132.148438 157.792969 131.988281 C 160.238281 131.839844 162.621094 132.550781 164.617188 134.007812 L 167.519531 130.6875 C 167.539062 130.660156 167.554688 130.632812 167.578125 130.605469 C 167.59375 130.589844 167.613281 130.574219 167.632812 130.558594 Z M 159.523438 108.027344 C 159.511719 108.019531 159.503906 108.011719 159.496094 108.003906 C 159.269531 107.800781 158.980469 107.699219 158.683594 107.71875 C 158.386719 107.734375 158.109375 107.871094 157.910156 108.101562 L 152.664062 114.105469 C 152.242188 114.589844 152.285156 115.328125 152.765625 115.757812 L 153.722656 116.621094 L 160.507812 108.855469 Z M 156.550781 162.019531 C 156.296875 162.269531 155.941406 162.386719 155.589844 162.332031 C 153.585938 162.019531 151.652344 163.027344 150.542969 164.960938 L 145.808594 173.234375 L 149.199219 176.617188 L 157.488281 171.890625 C 159.425781 170.785156 160.4375 168.859375 160.121094 166.855469 C 160.066406 166.503906 160.183594 166.148438 160.4375 165.898438 L 182.367188 144.011719 C 182.378906 143.996094 182.386719 143.980469 182.402344 143.964844 C 182.441406 143.921875 182.488281 143.882812 182.53125 143.847656 L 187.105469 139.285156 L 183.1875 135.441406 Z M 218.789062 178.253906 L 183.273438 146.25 L 162.390625 167.09375 C 162.570312 169.78125 161.128906 172.375 158.59375 173.820312 L 149.566406 178.96875 C 149.128906 179.21875 148.578125 179.144531 148.222656 178.789062 L 143.628906 174.207031 C 143.273438 173.851562 143.203125 173.304688 143.449219 172.867188 L 148.609375 163.859375 C 150.058594 161.328125 152.660156 159.886719 155.351562 160.070312 L 175.878906 139.585938 L 168.507812 132.941406 L 165.59375 136.277344 C 165.394531 136.5 165.117188 136.636719 164.820312 136.652344 C 164.523438 136.671875 164.230469 136.570312 164.007812 136.375 C 162.300781 134.84375 160.140625 134.074219 157.929688 134.210938 C 155.878906 134.332031 154.019531 135.238281 152.695312 136.753906 C 149.929688 139.921875 150.542969 145.0625 154.0625 148.21875 C 154.304688 148.433594 154.425781 148.734375 154.429688 149.035156 C 154.429688 149.054688 154.433594 149.074219 154.433594 149.09375 C 154.433594 149.15625 154.429688 149.21875 154.417969 149.28125 C 154.328125 149.816406 153.863281 150.207031 153.320312 150.207031 L 153.273438 150.207031 C 153.070312 150.207031 152.875 150.148438 152.707031 150.050781 C 148.300781 148.445312 145.183594 144.949219 143.914062 140.171875 C 142.433594 134.609375 143.738281 128.046875 147.089844 124.210938 L 152.257812 118.296875 L 151.273438 117.410156 C 149.894531 116.175781 149.765625 114.039062 150.984375 112.644531 L 156.230469 106.640625 C 156.828125 105.957031 157.648438 105.554688 158.550781 105.5 C 159.441406 105.445312 160.300781 105.742188 160.96875 106.335938 L 161.972656 107.179688 L 164.292969 104.523438 C 165.042969 103.664062 166.09375 103.152344 167.246094 103.082031 C 168.460938 103.007812 169.640625 103.421875 170.566406 104.253906 L 170.996094 104.640625 L 172.75 102.632812 L 172.292969 102.226562 C 170.441406 100.566406 170.15625 97.8125 171.660156 96.09375 L 175.667969 91.503906 C 176.359375 90.714844 177.335938 90.242188 178.421875 90.175781 C 179.625 90.101562 180.859375 90.542969 181.804688 91.390625 L 190.710938 99.371094 C 191.765625 100.316406 192.3125 101.609375 192.3125 102.871094 C 192.3125 103.824219 191.996094 104.761719 191.347656 105.503906 L 187.335938 110.09375 C 186.644531 110.886719 185.667969 111.355469 184.582031 111.421875 C 183.378906 111.496094 182.144531 111.050781 181.199219 110.207031 L 180.769531 109.820312 L 179.019531 111.824219 L 180.109375 112.800781 C 181.964844 114.464844 182.1875 117.285156 180.605469 119.09375 L 178.722656 121.25 L 180.777344 122.976562 C 181.867188 122.71875 183.0625 123.007812 183.914062 123.855469 L 185.84375 125.785156 L 211.6875 94.425781 C 213.921875 91.71875 217.214844 90.167969 220.730469 90.167969 C 227.1875 90.167969 232.441406 95.410156 232.441406 101.855469 C 232.441406 105.359375 230.886719 108.648438 228.171875 110.875 L 196.859375 136.613281 L 231.238281 165.367188 C 231.992188 166.003906 232.425781 166.933594 232.425781 167.921875 C 232.425781 174.09375 227.394531 179.117188 221.207031 179.117188 L 221.027344 179.117188 C 220.199219 179.117188 219.402344 178.808594 218.789062 178.253906 " fill-opacity="1" fill-rule="nonzero"/></g><path stroke-linecap="butt" transform="matrix(0.75, 0, 0, 0.75, 105.054679, 188.125725)" fill="none" stroke-linejoin="miter" d="M 13.687512 14.196951 L 22.020846 14.196951 L 22.020846 10.342784 L 1.286469 10.342784 L 1.286469 14.196951 L 9.619803 14.196951 L 9.619803 56.999037 L 13.687512 56.999037 Z M 37.875014 57.665703 C 46.078139 57.665703 50.145848 50.196953 50.145848 33.530285 C 50.145848 16.868826 46.078139 9.394867 37.875014 9.394867 C 29.739596 9.394867 25.604179 16.868826 25.604179 33.530285 C 25.604179 50.196953 29.739596 57.665703 37.875014 57.665703 Z M 37.875014 53.795912 C 30.812513 53.795912 29.739596 41.801119 29.739596 33.530285 C 29.739596 25.26466 30.812513 13.269867 37.875014 13.269867 C 44.937514 13.269867 46.015639 25.26466 46.015639 33.530285 C 46.015639 41.801119 44.937514 53.795912 37.875014 53.795912 Z M 67.072932 57.665703 C 75.276058 57.665703 79.343766 50.196953 79.343766 33.530285 C 79.343766 16.868826 75.276058 9.394867 67.072932 9.394867 C 58.937515 9.394867 54.802098 16.868826 54.802098 33.530285 C 54.802098 50.196953 58.937515 57.665703 67.072932 57.665703 Z M 67.072932 53.795912 C 60.010432 53.795912 58.937515 41.801119 58.937515 33.530285 C 58.937515 25.26466 60.010432 13.269867 67.072932 13.269867 C 74.135433 13.269867 75.208349 25.26466 75.208349 33.530285 C 75.208349 41.801119 74.135433 53.795912 67.072932 53.795912 Z M 90.8646 53.061536 L 90.8646 10.342784 L 86.796892 10.342784 L 86.796892 56.999037 L 102.270851 56.999037 L 102.270851 53.061536 Z M 90.8646 53.061536 " stroke="#e87500" stroke-width="2.49999" stroke-opacity="1" stroke-miterlimit="4"/><path stroke-linecap="butt" transform="matrix(0.75, 0, 0, 0.75, 105.054679, 188.125725)" fill="none" stroke-linejoin="miter" d="M 147.296896 51.400078 L 143.979187 49.530286 C 142.645854 52.066745 141.244812 53.728203 138.234395 53.728203 C 130.84377 53.728203 129.770853 41.863619 129.770853 32.472993 C 129.770853 24.13966 130.84377 13.269867 137.90627 13.269867 C 139.635437 13.269867 142.041687 13.874034 144.239604 17.874034 L 147.296896 15.743826 C 145.380229 11.545909 141.505229 9.394867 138.572937 9.394867 C 129.984395 9.394867 125.572936 17.467784 125.572936 33.467785 C 125.572936 50.004245 129.708353 57.665703 137.90627 57.665703 C 142.041687 57.665703 145.380229 55.405287 147.296896 51.400078 Z M 161.635438 34.801119 L 171.432314 57.603203 L 175.109398 55.728203 L 164.562522 31.269868 L 167.572939 27.60841 C 171.432314 22.874035 172.895856 20.999034 172.895856 17.467784 C 172.895856 13.009451 170.093772 10.342784 164.171897 10.342784 L 153.432313 10.342784 L 153.432313 56.999037 L 157.500021 56.999037 L 157.500021 39.795911 Z M 157.500021 34.32716 L 157.500021 14.196951 L 164.239605 14.196951 C 167.166689 14.196951 168.697939 15.269867 168.697939 17.665701 C 168.697939 20.139659 168.031272 21.472993 165.166689 25.004243 Z M 182.307315 10.342784 L 182.307315 56.999037 L 186.375023 56.999037 L 186.375023 10.342784 Z M 211.70315 24.660493 L 212.692733 23.472993 C 214.822942 20.868826 216.291692 18.999034 216.291692 16.264659 C 216.291692 13.009451 213.833358 10.342784 208.968775 10.342784 L 196.828149 10.342784 L 196.828149 56.999037 L 201.302108 56.999037 C 213.70315 56.999037 218.76565 47.806328 218.76565 39.196952 C 218.76565 31.806327 215.963567 27.931327 211.70315 24.660493 Z M 200.895858 14.196951 L 208.364608 14.196951 C 211.291692 14.196951 212.218775 15.269867 212.218775 16.738617 C 212.218775 18.134451 211.4219 19.472993 210.302108 20.868826 L 200.895858 32.32716 Z M 202.489608 53.129245 L 200.895858 53.129245 L 200.895858 37.79591 L 209.098983 27.868827 C 212.026067 29.868827 214.562525 33.07716 214.562525 39.259452 C 214.562525 48.405286 208.104191 53.129245 202.489608 53.129245 Z M 202.489608 53.129245 " stroke="#e87500" stroke-width="2.49999" stroke-opacity="1" stroke-miterlimit="4"/><g fill="#154734" fill-opacity="1"><g transform="translate(145.054682, 263.899963)"><g><path d="M 6.738281 0.195312 C 10.4375 0.195312 12.019531 -2 12.019531 -5.476562 L 12.019531 -13.796875 L 9.539062 -13.796875 L 9.539062 -5.664062 C 9.539062 -3.4375 8.960938 -2.195312 6.738281 -2.195312 C 4.519531 -2.195312 3.933594 -3.4375 3.933594 -5.664062 L 3.933594 -13.796875 L 1.464844 -13.796875 L 1.464844 -5.378906 C 1.464844 -2 3.035156 0.195312 6.738281 0.195312 Z M 6.738281 0.195312 "/></g></g></g><g fill="#154734" fill-opacity="1"><g transform="translate(158.52598, 263.899963)"><g><path d="M 4.519531 0 L 7 0 L 7 -11.578125 L 11.316406 -11.578125 L 11.316406 -13.796875 L 0.195312 -13.796875 L 0.195312 -11.578125 L 4.519531 -11.578125 Z M 4.519531 0 "/></g></g></g><g fill="#154734" fill-opacity="1"><g transform="translate(170.044915, 263.899963)"><g><path d="M 1.777344 0 L 5.761719 0 C 10.398438 0 12.957031 -2.5 12.957031 -6.796875 C 12.957031 -11.277344 10.476562 -13.796875 5.78125 -13.796875 L 1.777344 -13.796875 Z M 4.257812 -2.273438 L 4.257812 -11.519531 L 5.742188 -11.519531 C 9.136719 -11.519531 10.476562 -10.171875 10.476562 -6.902344 C 10.476562 -3.457031 8.5625 -2.273438 5.515625 -2.273438 Z M 4.257812 -2.273438 "/></g></g></g><g fill="#154734" fill-opacity="1"><g transform="translate(183.799305, 263.899963)"><g><path d="M 5.496094 0.195312 C 7.136719 0.195312 8.433594 -0.378906 9.5 -1.5625 L 7.859375 -2.996094 C 7.175781 -2.234375 6.394531 -1.960938 5.515625 -1.960938 C 3.984375 -1.960938 3.28125 -2.820312 3.074219 -4.101562 L 9.773438 -4.101562 C 9.820312 -4.238281 9.859375 -4.636719 9.859375 -5.039062 C 9.859375 -7.214844 8.757812 -9.957031 5.339844 -9.957031 C 2.039062 -9.957031 0.554688 -7.382812 0.554688 -4.84375 C 0.554688 -2.214844 2.136719 0.195312 5.496094 0.195312 Z M 3.074219 -5.820312 C 3.300781 -7.039062 3.914062 -7.957031 5.320312 -7.957031 C 6.355469 -7.957031 7.195312 -7.441406 7.441406 -6.433594 C 7.5 -6.238281 7.519531 -6.035156 7.519531 -5.820312 Z M 3.074219 -5.820312 "/></g></g></g><g fill="#154734" fill-opacity="1"><g transform="translate(194.23468, 263.899963)"><g><path d="M 4.355469 0.195312 C 6.199219 0.195312 8.160156 -0.800781 8.160156 -3.054688 C 8.160156 -6.640625 3.203125 -5.761719 3.203125 -7.234375 C 3.203125 -7.695312 3.679688 -8.074219 4.460938 -8.074219 C 5.515625 -8.074219 6.0625 -7.441406 6.394531 -6.835938 L 8.238281 -7.839844 C 7.5 -9.15625 6.21875 -9.957031 4.539062 -9.957031 C 2.65625 -9.957031 0.917969 -8.980469 0.917969 -6.921875 C 0.917969 -3.476562 5.820312 -4.578125 5.820312 -2.9375 C 5.820312 -2.421875 5.339844 -1.777344 4.238281 -1.777344 C 2.9375 -1.777344 2.421875 -2.675781 2.15625 -3.378906 L 0.261719 -2.539062 C 0.742188 -1.035156 2.304688 0.195312 4.355469 0.195312 Z M 4.355469 0.195312 "/></g></g></g><g fill="#154734" fill-opacity="1"><g transform="translate(203.108165, 263.899963)"><g><path d="M 1.355469 -11.597656 L 3.855469 -11.597656 L 3.855469 -13.796875 L 1.355469 -13.796875 Z M 1.414062 0 L 3.796875 0 L 3.796875 -9.753906 L 1.414062 -9.753906 Z M 1.414062 0 "/></g></g></g><g fill="#154734" fill-opacity="1"><g transform="translate(208.330733, 263.899963)"><g><path d="M 5.898438 -1.523438 C 4.160156 -1.738281 2.957031 -1.757812 2.957031 -2.558594 C 2.957031 -2.78125 3.046875 -2.949219 3.242188 -3.074219 C 3.796875 -2.832031 4.421875 -2.695312 5.097656 -2.695312 C 7.234375 -2.695312 9.058594 -4.082031 9.058594 -6.257812 C 9.058594 -6.894531 8.914062 -7.46875 8.640625 -7.957031 L 10.054688 -9.097656 L 8.816406 -10.613281 L 7.324219 -9.332031 C 6.667969 -9.734375 5.867188 -9.957031 5.019531 -9.957031 C 2.859375 -9.957031 1.015625 -8.492188 1.015625 -6.375 C 1.015625 -5.515625 1.316406 -4.746094 1.824219 -4.128906 C 1.25 -3.621094 0.917969 -2.996094 0.917969 -2.136719 C 0.917969 -1.199219 1.308594 -0.613281 1.875 -0.234375 L 0.742188 0.722656 C 0.722656 0.820312 0.703125 0.917969 0.703125 1.140625 C 0.703125 3.144531 2.304688 4.617188 5.378906 4.617188 C 7.800781 4.617188 9.695312 3.5625 9.695312 1.355469 C 9.695312 -0.878906 7.742188 -1.277344 5.898438 -1.523438 Z M 5.097656 -8.113281 C 6.140625 -8.113281 6.699219 -7.382812 6.699219 -6.355469 C 6.699219 -5.359375 6.160156 -4.636719 5.097656 -4.636719 C 4.042969 -4.636719 3.476562 -5.359375 3.476562 -6.355469 C 3.476562 -7.382812 4.0625 -8.113281 5.097656 -8.113281 Z M 5.359375 2.78125 C 4.179688 2.78125 3.164062 2.441406 2.878906 1.464844 L 2.820312 1.199219 L 3.347656 0.320312 C 3.945312 0.4375 4.550781 0.488281 5.058594 0.535156 C 6.679688 0.703125 7.441406 0.878906 7.441406 1.621094 C 7.441406 2.402344 6.621094 2.78125 5.359375 2.78125 Z M 5.359375 2.78125 "/></g></g></g><g fill="#154734" fill-opacity="1"><g transform="translate(218.590395, 263.899963)"><g><path d="M 1.414062 0 L 3.796875 0 L 3.796875 -5.339844 C 3.796875 -7.039062 4.636719 -7.761719 5.976562 -7.761719 C 7.195312 -7.761719 7.839844 -6.835938 7.839844 -5.554688 L 7.839844 0 L 10.222656 0 L 10.222656 -5.859375 C 10.222656 -7.898438 9.214844 -9.957031 6.660156 -9.957031 C 5.703125 -9.957031 4.578125 -9.578125 3.796875 -8.621094 L 3.796875 -9.753906 L 1.414062 -9.753906 Z M 1.414062 0 "/></g></g></g></svg>